<svg width="16" height="16" viewBox="0 0 16 16" fill="none" xmlns="http://www.w3.org/2000/svg">
<path d="M13.5 7V4" stroke="black" stroke-linecap="round" stroke-linejoin="round"/>
<path d="M15 5.5H12" stroke="black" stroke-linecap="round" stroke-linejoin="round"/>
<path d="M10.5 1.5V3.5" stroke="black" stroke-linecap="round" stroke-linejoin="round"/>
<path d="M11.5 2.5H9.5" stroke="black" stroke-linecap="round" stroke-linejoin="round"/>
<path d="M13.2894 9.08125C12.3078 9.35653 11.2705 9.36555 10.2842 9.10739C9.2979 8.84923 8.39808 8.33319 7.67716 7.61227C6.95624 6.89135 6.44021 5.99153 6.18204 5.00522C5.92388 4.01892 5.93291 2.98167 6.20818 2C5.24035 2.26938 4.35998 2.78764 3.65477 3.50315C2.94956 4.21865 2.44412 5.10644 2.1888 6.07808C1.93348 7.04972 1.93718 8.07129 2.19954 9.04106C2.4619 10.0108 2.97376 10.8949 3.68414 11.6053C4.39451 12.3157 5.27861 12.8275 6.24838 13.0899C7.21814 13.3523 8.23971 13.356 9.21135 13.1006C10.183 12.8453 11.0708 12.3399 11.7863 11.6347C12.5018 10.9295 13.02 10.0491 13.2894 9.08125Z" stroke="black" stroke-linecap="round" stroke-linejoin="round"/>
</svg>
